<svg xmlns="http://www.w3.org/2000/svg" xmlns:xlink="http://www.w3.org/1999/xlink" width="774.736" height="666" viewBox="0 0 774.736 666">
  <defs>
    <linearGradient id="linear-gradient" x1="0.5" y1="0.925" x2="0.5" gradientUnits="objectBoundingBox">
      <stop offset="0" stop-color="#fff"/>
      <stop offset="1" stop-color="#fff" stop-opacity="0"/>
    </linearGradient>
  </defs>
  <path id="Union_3" data-name="Union 3" d="M752.652.117C506.259-.028,256.339.026,9.9.258,7.246-.117,3.325.724,1.323,3.04A5.432,5.432,0,0,0,.19,8.086a5.029,5.029,0,0,0,1.133,4.063c2.49,2.91,7.854,2.915,8.9,2.887,15.513.179,31.343.066,46.654-.048l1.2-.008a71.4,71.4,0,0,0-2.488,14.34c-.136,73.968-.082,149.077-.031,221.709q.061,88.639.028,177.263c.031,3.048-.013,6.083-.051,9.119a181.075,181.075,0,0,0,.46,19.847l.049.492.343.355a34.144,34.144,0,0,0,8.743,6.543q13.579,7.771,27.225,15.631c16.648,9.573,33.867,19.472,50.878,29.089,3.628,1.518,3.9,5.033,3.914,10.231,0,1.377.008,2.678.13,3.9-.263,13.991-.2,28.379-.138,42.3.054,11.769.107,23.941-.033,35.912-.665,11.713-1.421,25.058,4.055,37.031l.741-.337-.739.347a47.427,47.427,0,0,0,42.285,27.127q75.983.1,151.946.046,86.383-.031,172.777.074h.591l.417-.416q56.057-56.144,112.2-112.163l.4-.4.018-.564c.184-6.382.184-12.858.187-19.125,0-7.173,0-14.588.281-21.87q16.616-9.477,33.164-19.11c18.282-10.58,37.188-21.531,55.965-31.935l.624-.344.095-.707a184,184,0,0,0,1.49-31.183q-.069-129.3,0-258.682c.253-21.25-.054-42.86-.355-63.758-.317-21.941-.642-44.625-.314-66.928a66.651,66.651,0,0,0-2.36-23.865q5.319.031,10.64.092c11.76.117,23.924.24,35.889-.2a6.893,6.893,0,0,0,7.25-5.056A7.408,7.408,0,0,0,771.11.99l-.527-.173A103.7,103.7,0,0,0,757.57,0C755.929,0,754.288.036,752.652.117ZM95.427,25.5c-3.871-3.347-7.849-6.785-11.673-10.323,202.376-.189,407.959-.151,611.168.094q-14.756,13.15-29.551,26.262C599.821,99.2,533.282,157.648,467.6,215.243c-2.894,2.523-5.888,5.147-9.654,4.487l-34.516-.005c-35.247.026-71.688.043-107.528-.1-33.417-29.752-67.628-59.707-100.72-88.686-33.4-29.242-67.935-59.483-101.641-89.5l-.455-.406-.516.043C107.1,35.585,101.169,30.461,95.427,25.5ZM70.5,258.315c.043-68.306.092-138.925-.171-208.41l.514-.3L70.8,48.75a225.424,225.424,0,0,1,.13-24.056C75.4,28.3,79.74,32.167,83.951,35.924q2.987,2.663,5.993,5.3c24.735,21.281,49.633,43.2,73.71,64.388q19.224,16.927,38.491,33.81c13.414,11.94,27.184,23.944,40.5,35.56,19.808,17.274,40.276,35.123,60.012,53.132-34.91,31.223-70.154,63.189-104.246,94.112-41.764,37.883-84.926,77.032-127.835,115.14C70.421,377.645,70.462,317,70.5,258.315Zm405.568-30.369C546.44,165.677,618.031,102.764,688.881,40.914c2.114-1.8,4.229-3.625,6.34-5.448,4.1-3.528,8.3-7.155,12.55-10.667.156,5.887.2,11.83.238,17.6l.059,7.412c-.187,60.376-.146,121.777-.1,181.158.049,67.655.1,137.578-.194,206.417Q591.9,332.687,476.069,227.946Zm-20.836,6.538a12.257,12.257,0,0,1,9.743,3.566q30.046,27.066,59.857,54.152c30.134,27.331,61.291,55.58,92.166,83.128v8.82c.095,49.1.095,98.881,0,147.97-.02,3.377-.023,6.754-.01,10.149q-34.521-.069-69-.066a39.618,39.618,0,0,0-28.186,9.779c-6.115,5.4-8.884,12.993-11.561,20.345l-.522,1.423,0,.26c.2,19.666.151,39.664.11,59l-.036,18c-98.831-.069-199.027-.069-297.828,0-2.24-.048-4.563-.013-6.908.031-9.063.153-18.435.314-25.941-4.818l-.805,1.171v0l.744-1.212a31.608,31.608,0,0,1-15.033-27.635q.031-49.67-.008-99.269-.027-67.81.031-135.63c.02-2.8.066-5.589.113-8.415q24.819-22.421,49.587-44.893c34.761-31.5,70.7-64.082,106.3-95.844q34.582-.038,69.147-.01,15.542,0,31.085.005Q436.759,234.5,455.233,234.483ZM118.648,477.955c-13.954-8.04-28.362-16.345-42.664-24.385,8.866-8.206,18.111-16.246,27.069-24.033C117.472,417,132.356,404.06,146,390.121c1.406,12.583,1.314,25.418,1.222,37.866-.033,4.877-.066,9.751-.02,14.623-.046,6.127-.018,12.277.01,18.429.051,10.871.1,22.089-.3,33.149Q132.755,486.119,118.648,477.955Zm513.335-26.808c.013-14.478.028-29.446-.133-44.168a110.729,110.729,0,0,1,1.4-15.988,125.348,125.348,0,0,0,12.105,11.392c2.536,2.186,5.162,4.443,7.606,6.777,9.05,8.831,18.773,17.24,28.173,25.37,7.133,6.168,14.491,12.534,21.526,19.056-9.089,5.288-18.233,10.489-27.375,15.687-14.222,8.086-28.9,16.437-43.18,25.02C631.952,479.893,631.967,465.291,631.983,451.147ZM522.659,615.072c.02-8.267.046-16.814-.074-25.222v-2.609c-.015-6.925-.028-14.09,3.554-19.982a23.858,23.858,0,0,1,21.508-10.412c8.925.064,17.753.064,26.586.066,10.643,0,21.613,0,32.466.112q-12.364,12.331-24.7,24.681c-19.374,19.378-39.384,39.391-59.258,58.973C522.613,632.118,522.636,623.471,522.659,615.072ZM227.879,344.33a8.5,8.5,0,1,0,0,17.006H526.144a8.5,8.5,0,1,0,0-17.006Zm198.843,73.688a8.5,8.5,0,1,0,0,17.006H571.594a8.5,8.5,0,1,0,0-17.006Zm-198.843,0a8.5,8.5,0,1,0,0,17.006H384.112a8.5,8.5,0,1,0,0-17.006Zm247.134,73.688a8.5,8.5,0,1,0,0,17.006h96.581a8.5,8.5,0,1,0,0-17.006Zm-247.134,0a8.5,8.5,0,1,0,0,17.006h181.8a8.5,8.5,0,1,0,0-17.006Zm0,73.688a8.5,8.5,0,1,0,0,17H369.911a8.5,8.5,0,1,0,0-17Z" transform="translate(774.736 666) rotate(180)" opacity="0.2" fill="url(#linear-gradient)"/>
</svg>
